<svg xmlns="http://www.w3.org/2000/svg" xmlns:xlink="http://www.w3.org/1999/xlink" width="40" zoomAndPan="magnify" viewBox="0 0 30 30.000001" height="40" preserveAspectRatio="xMidYMid meet" version="1.0"><defs><g/><clipPath id="822ab87f5c"><path d="M 2.082031 1.613281 L 27.917969 1.613281 L 27.917969 27.421875 L 2.082031 27.421875 Z M 2.082031 1.613281 " clip-rule="nonzero"/></clipPath></defs><g clip-path="url(#822ab87f5c)"><path fill="#000000" d="M 2.082031 1.613281 L 27.917969 1.613281 L 27.917969 27.421875 L 2.082031 27.421875 Z M 2.082031 1.613281 " fill-opacity="1" fill-rule="nonzero"/></g><g fill="#ffffff" fill-opacity="1"><g transform="translate(2.312381, 19.233873)"><g><path d="M 0.078125 0 L 3.347656 0 L 3.929688 -1.511719 L 7.582031 -1.511719 L 8.164062 0 L 11.449219 0 L 7.292969 -10.699219 L 4.234375 -10.699219 Z M 4.570312 -3.777344 L 5.761719 -7.09375 L 6.953125 -3.777344 Z M 4.570312 -3.777344 "/></g></g></g><g fill="#ffffff" fill-opacity="1"><g transform="translate(14.99251, 19.233873)"><g><path d="M 6.34375 0.230469 C 9.753906 0.230469 12.167969 -2.078125 12.167969 -5.351562 C 12.167969 -8.621094 9.753906 -10.929688 6.34375 -10.929688 C 2.933594 -10.929688 0.519531 -8.621094 0.519531 -5.351562 C 0.519531 -2.078125 2.933594 0.230469 6.34375 0.230469 Z M 3.652344 -5.351562 C 3.652344 -6.953125 4.769531 -8.070312 6.34375 -8.070312 C 7.933594 -8.070312 9.035156 -6.953125 9.035156 -5.351562 C 9.035156 -3.746094 7.933594 -2.628906 6.34375 -2.628906 C 4.769531 -2.628906 3.652344 -3.746094 3.652344 -5.351562 Z M 3.652344 -5.351562 "/></g></g></g></svg>