<svg xmlns="http://www.w3.org/2000/svg" xmlns:xlink="http://www.w3.org/1999/xlink" width="200" zoomAndPan="magnify" viewBox="0 0 150 44.999999" height="60" preserveAspectRatio="xMidYMid meet" version="1.0"><defs><g/><clipPath id="592b061c73"><path d="M 1.5 5.554688 L 148.460938 5.554688 L 148.460938 39.304688 L 1.5 39.304688 Z M 1.5 5.554688 " clip-rule="nonzero"/></clipPath><clipPath id="2950f05d9f"><path d="M 4.152344 8.738281 L 90.121094 8.738281 L 90.121094 36.261719 L 4.152344 36.261719 Z M 4.152344 8.738281 " clip-rule="nonzero"/></clipPath></defs><g clip-path="url(#592b061c73)"><path stroke-linecap="butt" transform="matrix(0.749821, 0, 0, 0.747146, 1.499238, 5.555393)" fill="none" stroke-linejoin="miter" d="M 0.00101591 -0.000944159 L 195.995808 -0.000944159 L 195.995808 45.170934 L 0.00101591 45.170934 Z M 0.00101591 -0.000944159 " stroke="#000000" stroke-width="2" stroke-opacity="1" stroke-miterlimit="4"/></g><g clip-path="url(#2950f05d9f)"><path fill="#000000" d="M 4.152344 8.738281 L 90.121094 8.738281 L 90.121094 36.261719 L 4.152344 36.261719 Z M 4.152344 8.738281 " fill-opacity="1" fill-rule="nonzero"/></g><g fill="#ffffff" fill-opacity="1"><g transform="translate(5.200502, 26.970824)"><g><path d="M 0.0664062 0 L 2.957031 0 L 3.46875 -1.335938 L 6.695312 -1.335938 L 7.210938 0 L 10.113281 0 L 6.441406 -9.449219 L 3.738281 -9.449219 Z M 4.035156 -3.335938 L 5.089844 -6.265625 L 6.140625 -3.335938 Z M 4.035156 -3.335938 "/></g></g></g><g fill="#ffffff" fill-opacity="1"><g transform="translate(16.405437, 26.970824)"><g><path d="M 1 0 L 7.585938 0 L 7.585938 -2.523438 L 3.726562 -2.523438 L 3.726562 -9.449219 L 1 -9.449219 Z M 1 0 "/></g></g></g><g fill="#ffffff" fill-opacity="1"><g transform="translate(25.355886, 26.970824)"><g><path d="M 1 0 L 3.726562 0 L 3.726562 -3.578125 L 4.914062 -3.578125 L 6.722656 0 L 9.882812 0 L 7.398438 -4.589844 C 7.679688 -4.925781 7.9375 -5.371094 8.152344 -5.925781 L 9.558594 -9.449219 L 6.601562 -9.449219 L 5.75 -7.085938 C 5.46875 -6.265625 5.15625 -6.0625 4.183594 -6.0625 L 3.726562 -6.0625 L 3.726562 -9.449219 L 1 -9.449219 Z M 1 0 "/></g></g></g><g fill="#ffffff" fill-opacity="1"><g transform="translate(36.587818, 26.970824)"><g><path d="M 0.0664062 0 L 2.957031 0 L 3.46875 -1.335938 L 6.695312 -1.335938 L 7.210938 0 L 10.113281 0 L 6.441406 -9.449219 L 3.738281 -9.449219 Z M 4.035156 -3.335938 L 5.089844 -6.265625 L 6.140625 -3.335938 Z M 4.035156 -3.335938 "/></g></g></g><g fill="#ffffff" fill-opacity="1"><g transform="translate(47.792754, 26.970824)"><g><path d="M 1 0 L 3.699219 0 L 3.699219 -4.820312 L 7.289062 0 L 9.503906 0 L 9.503906 -9.449219 L 6.816406 -9.449219 L 6.816406 -4.65625 L 3.226562 -9.449219 L 1 -9.449219 Z M 1 0 "/></g></g></g><g fill="#ffffff" fill-opacity="1"><g transform="translate(59.335184, 26.970824)"><g/></g></g><g fill="#ffffff" fill-opacity="1"><g transform="translate(63.479661, 26.970824)"><g><path d="M 5.601562 0.203125 C 8.613281 0.203125 10.746094 -1.835938 10.746094 -4.726562 C 10.746094 -7.613281 8.613281 -9.652344 5.601562 -9.652344 C 2.59375 -9.652344 0.460938 -7.613281 0.460938 -4.726562 C 0.460938 -1.835938 2.59375 0.203125 5.601562 0.203125 Z M 3.226562 -4.726562 C 3.226562 -6.140625 4.210938 -7.128906 5.601562 -7.128906 C 7.007812 -7.128906 7.976562 -6.140625 7.976562 -4.726562 C 7.976562 -3.308594 7.007812 -2.320312 5.601562 -2.320312 C 4.210938 -2.320312 3.226562 -3.308594 3.226562 -4.726562 Z M 3.226562 -4.726562 "/></g></g></g><g fill="#ffffff" fill-opacity="1"><g transform="translate(75.724083, 26.970824)"><g><path d="M 1 0 L 3.726562 0 L 3.726562 -9.449219 L 1 -9.449219 Z M 1 0 "/></g></g></g><g fill="#ffffff" fill-opacity="1"><g transform="translate(81.475048, 26.970824)"><g><path d="M 1 0 L 7.585938 0 L 7.585938 -2.523438 L 3.726562 -2.523438 L 3.726562 -9.449219 L 1 -9.449219 Z M 1 0 "/></g></g></g><g fill="#000000" fill-opacity="1"><g transform="translate(93.517694, 26.970824)"><g><path d="M 1 0 L 3.726562 0 L 3.726562 -9.449219 L 1 -9.449219 Z M 1 0 "/></g></g></g><g fill="#000000" fill-opacity="1"><g transform="translate(98.242662, 26.970824)"><g><path d="M 1 0 L 3.699219 0 L 3.699219 -4.820312 L 7.289062 0 L 9.503906 0 L 9.503906 -9.449219 L 6.816406 -9.449219 L 6.816406 -4.65625 L 3.226562 -9.449219 L 1 -9.449219 Z M 1 0 "/></g></g></g><g fill="#000000" fill-opacity="1"><g transform="translate(108.759095, 26.970824)"><g><path d="M 3.617188 0 L 6.316406 0 L 9.867188 -9.449219 L 6.964844 -9.449219 L 5.859375 -6.332031 L 4.980469 -3.875 L 4.105469 -6.332031 L 2.996094 -9.449219 L 0.0664062 -9.449219 Z M 3.617188 0 "/></g></g></g><g fill="#000000" fill-opacity="1"><g transform="translate(118.695038, 26.970824)"><g><path d="M 1 0 L 7.628906 0 L 7.628906 -2.226562 L 3.699219 -2.226562 L 3.699219 -3.683594 L 7.113281 -3.683594 L 7.113281 -5.871094 L 3.699219 -5.871094 L 3.699219 -7.25 L 7.480469 -7.25 L 7.480469 -9.449219 L 1 -9.449219 Z M 1 0 "/></g></g></g><g fill="#000000" fill-opacity="1"><g transform="translate(126.929988, 26.970824)"><g><path d="M 4.386719 0.203125 C 6.738281 0.203125 8.128906 -0.90625 8.128906 -2.765625 C 8.128906 -4.332031 7.113281 -5.25 4.820312 -5.765625 C 3.605469 -6.035156 3.160156 -6.332031 3.160156 -6.816406 C 3.160156 -7.277344 3.5625 -7.558594 4.199219 -7.558594 C 4.953125 -7.558594 5.386719 -7.167969 5.386719 -6.453125 L 7.953125 -6.453125 C 7.953125 -8.398438 6.464844 -9.652344 4.144531 -9.652344 C 1.917969 -9.652344 0.539062 -8.546875 0.539062 -6.761719 C 0.539062 -5.171875 1.578125 -4.183594 3.710938 -3.78125 C 4.859375 -3.550781 5.414062 -3.199219 5.414062 -2.660156 C 5.414062 -2.1875 5.007812 -1.917969 4.347656 -1.917969 C 3.5625 -1.917969 3.105469 -2.335938 3.105469 -3.066406 L 0.472656 -3.066406 C 0.472656 -1.027344 1.929688 0.203125 4.386719 0.203125 Z M 4.386719 0.203125 "/></g></g></g><g fill="#000000" fill-opacity="1"><g transform="translate(135.55643, 26.970824)"><g><path d="M 3.253906 0 L 5.96875 0 L 5.96875 -6.925781 L 8.84375 -6.925781 L 8.84375 -9.449219 L 0.378906 -9.449219 L 0.378906 -6.925781 L 3.253906 -6.925781 Z M 3.253906 0 "/></g></g></g></svg>